<svg xmlns="http://www.w3.org/2000/svg" width="20" height="20" viewBox="0 0 320 320">
<path d="M0 0 C-4.09 8.17 -11.84 14.78 -18.12 21.38 C-29.22 34.18 -38.12 48.38 -38.19 65.75 C-38.2 67.29 -38.22 68.83 -38.23 70.42 C-38.01 74.88 -37.24 78.72 -36 83 C-31.92 79.55 -27.96 76.03 -24.06 72.38 C0.53 50.03 49.43 14 84 14 C83.42 16.23 82.85 18.45 82.25 20.75 C76.52 43.77 72.56 66.91 73.25 90.71 C73.28 92.61 73.31 94.52 73.34 96.48 C73.4 100.44 73.53 104.39 73.71 108.34 C73.79 122.39 73.79 122.39 68.76 126.91 C64.58 129 60.44 130.53 56 132 C44.59 137.91 33.23 143.97 22.31 150.75 C21.01 151.55 19.71 152.35 18.36 153.17 C16 156 16 156 16.95 160.34 C17.28 161.11 17.28 161.11 19 165 C36.54 217.74 17.48 267.38 -18.06 307.75 C-28.64 319 -28.64 319 -35 319 C-37.36 316.25 -37.36 316.25 -39.75 312.44 C-40.62 311.06 -41.49 309.69 -42.38 308.27 C-43.25 306.86 -44.11 305.45 -45 304 C-45.78 302.75 -46.56 301.51 -47.37 300.23 C-63.28 274.4 -78 242.87 -78 212 C-79.65 211.34 -81.3 210.68 -83 210 C-99 202 -99 202 -102.94 200 C-111.12 195.97 -119.2 192.55 -127.87 189.73 C-129.62 189.12 -131.38 188.52 -133.19 187.9 C-136.76 186.68 -140.36 185.53 -143.98 184.46 C-152.37 181.52 -152.37 181.52 -156 178 C-155.76 171.33 -152.79 165.96 -150 160 C-145.02 140.08 -142.1 120.47 -141 100 C-117.66 109.34 -94.24 127.97 -75 144 C-74.34 144 -73.68 144 -73 144 C-71.25 140.81 -71.25 140.81 -71 136 C-73.24 132.82 -75.53 129.65 -78.02 126.66 C-103.53 95.37 -121 52.99 -109 13 C-108.67 12.34 -108.34 11.68 -108 11 C-102.07 10.76 -96.18 10.63 -90.25 10.56 C-62.04 10.02 -34.48 7.07 -6.89 0.85 C-3 0 -3 0 0 0 Z M-25 197 C-23.37 200.42 -21.73 203.83 -19.93 207.15 C-7.36 232.25 -13.2 261.36 -20.6 287.01 C-21.9 291.65 -23 296.29 -24 301 C-5.31 282.31 -3.66 236.74 -10 213 C-12.82 205.66 -15.96 198.74 -20 192 C-22 192 -22 192 -25 197 Z M-41 251 C-41.67 269.22 -38.95 287.22 -35 305 C-34.67 305 -34.34 305 -34 305 C-33.31 265.6 -33.31 265.6 -40 251 C-40.33 251 -40.66 251 -41 251 Z M-25 301 C-24 303 -24 303 -24 303 Z" fill="#888" transform="translate(196,1)"/>
</svg>